<svg width="188" height="189" viewBox="0 0 188 189" fill="none" xmlns="http://www.w3.org/2000/svg">
<path d="M94 154C129.899 154 159 124.899 159 89C159 53.1015 129.899 24 94 24C58.1015 24 29 53.1015 29 89C29 124.899 58.1015 154 94 154Z" fill="#4E39C4"/>
<path d="M61 62C61 58.6863 63.6863 56 67 56H120C123.314 56 126 58.6863 126 62V115C126 118.314 123.314 121 120 121H67C63.6863 121 61 118.314 61 115V62Z" fill="#CCC3FF"/>
<circle opacity="0.2" cx="21" cy="20" r="12" fill="#4E39C4"/>
<circle opacity="0.4" cx="179" cy="36" r="9" fill="#4E39C4"/>
<circle opacity="0.7" cx="12" cy="142" r="6" fill="#4E39C4"/>
<circle opacity="0.3" cx="156" cy="151" r="3" fill="#4E39C4"/>
<circle opacity="0.6" cx="185" cy="119" r="3" fill="#4E39C4"/>
<circle opacity="0.5" cx="1.5" cy="83.5" r="1.5" fill="#4E39C4"/>
<circle opacity="0.4" cx="109" cy="13" r="3" fill="#4E39C4"/>
</svg>
