<svg width="188" height="189" viewBox="0 0 188 189" fill="none" xmlns="http://www.w3.org/2000/svg">
<path d="M159 89.0014C159 53.0998 129.898 24 94.0008 24C58.1018 23.9997 29 53.0992 29 89.0014C29 124.898 58.1018 154 94.0011 154C129.898 154 159 124.898 159 89.0014Z" fill="#218656"/>
<path d="M87.4502 55.7202H71.7278C70.2808 55.7202 69.1077 56.8938 69.1077 58.3403V119.657C69.1077 121.105 70.2808 122.278 71.7278 122.278H87.4502C88.8972 122.278 90.0703 121.105 90.0703 119.657V58.3403C90.0703 56.8938 88.8972 55.7202 87.4502 55.7202Z" fill="white"/>
<path d="M116.272 55.7202H100.549C99.1022 55.7202 97.9292 56.8938 97.9292 58.3403V119.657C97.9292 121.105 99.1022 122.278 100.549 122.278H116.272C117.719 122.278 118.892 121.105 118.892 119.657V58.3403C118.892 56.8938 117.719 55.7202 116.272 55.7202Z" fill="white"/>
<circle opacity="0.2" cx="21" cy="20" r="12" fill="#218656"/>
<circle opacity="0.4" cx="179" cy="36" r="9" fill="#218656"/>
<circle opacity="0.7" cx="12" cy="142" r="6" fill="#218656"/>
<circle opacity="0.3" cx="156" cy="151" r="3" fill="#218656"/>
<circle opacity="0.6" cx="185" cy="119" r="3" fill="#218656"/>
<circle opacity="0.5" cx="1.5" cy="83.5" r="1.5" fill="#218656"/>
<circle opacity="0.4" cx="109" cy="13" r="3" fill="#218656"/>
</svg>
