<svg width="188" height="189" viewBox="0 0 188 189" fill="none" xmlns="http://www.w3.org/2000/svg">
<path d="M159 89.0008C159 53.0995 129.898 24 94.0008 24C58.1018 23.9997 29 53.0989 29 89.0008C29 124.897 58.1018 153.999 94.001 153.999C129.898 153.998 159 124.897 159 89.0008Z" fill="#9785FF"/>
<path d="M126.156 85.6356L80.3168 57.4891C79.0655 56.7204 77.4187 56.6871 76.1375 57.4048C74.8329 58.1345 74.0228 59.5163 74.0228 61.0106V117.081C74.0228 118.573 74.8306 119.954 76.1309 120.685C76.7474 121.03 77.4473 121.214 78.155 121.214C78.914 121.214 79.6574 121.005 80.3048 120.61L126.143 92.6862C127.363 91.9431 128.123 90.5937 128.125 89.1647C128.128 87.7359 127.373 86.3834 126.156 85.6356Z" fill="white"/>
<circle opacity="0.2" cx="21" cy="20" r="12" fill="#9785FF"/>
<circle opacity="0.4" cx="179" cy="36" r="9" fill="#9785FF"/>
<circle opacity="0.7" cx="12" cy="142" r="6" fill="#9785FF"/>
<circle opacity="0.3" cx="156" cy="151" r="3" fill="#9785FF"/>
<circle opacity="0.6" cx="185" cy="119" r="3" fill="#9785FF"/>
<circle opacity="0.5" cx="1.5" cy="83.5" r="1.5" fill="#9785FF"/>
<circle opacity="0.4" cx="109" cy="13" r="3" fill="#9785FF"/>
</svg>
