<svg width="188" height="189" viewBox="0 0 188 189" fill="none" xmlns="http://www.w3.org/2000/svg">
<path d="M82.8036 45L134.875 27L145 45H82.8036ZM64 45L85.6964 27L94.375 38.0769L79.9107 45H64Z" fill="#CCC3FF"/>
<path d="M44.6626 142C38.8313 142 33 136.182 33 130.364V57.6364C33 51.8182 38.8313 46 44.6626 46H142.337C148.169 46 154 51.8182 154 57.6364V128.909C154 134.727 148.169 140.545 142.337 140.545L44.6626 142Z" fill="#735CF7"/>
<path d="M150.16 108H136.84C130.92 108 125 103.579 125 96.2105V91.7895C125 85.8947 130.92 80 136.84 80H150.16C156.08 80 162 84.421 162 91.7895V97.6842C162 103.579 157.56 108 150.16 108Z" fill="#CCC3FF"/>
<circle opacity="0.2" cx="21" cy="20" r="12" fill="#735CF7"/>
<circle opacity="0.4" cx="179" cy="36" r="9" fill="#735CF7"/>
<circle opacity="0.7" cx="12" cy="142" r="6" fill="#735CF7"/>
<circle opacity="0.3" cx="156" cy="151" r="3" fill="#735CF7"/>
<circle opacity="0.6" cx="185" cy="119" r="3" fill="#735CF7"/>
<circle opacity="0.5" cx="1.5" cy="83.5" r="1.5" fill="#735CF7"/>
<circle opacity="0.4" cx="109" cy="13" r="3" fill="#735CF7"/>
</svg>
